<svg xmlns="http://www.w3.org/2000/svg" width="180" height="39" viewBox="0 0 180 39">
    <g fill="none" fill-rule="evenodd">
        <g fill-rule="nonzero">
            <g>
                <g>
                    <path fill="#99AEBB" d="M17.163 6.35c.417.18.736.386.964.639.171.186.285.407.331.637.64.2 1.303.446 1.974.749 1.546.697 3.135 1.7 4.586 3.13.312-.402.616-.823.908-1.262l.6.399c-.322.484-.657.946-1.002 1.387 1.265 1.366 2.403 3.086 3.285 5.242l-.008-.019c.37-.538.73-1.102 1.075-1.694l.621.363c-.441.757-.905 1.47-1.386 2.143.594 1.69.847 3.304.847 4.823-.001 2.197-.527 4.187-1.3 5.924.78-.883 1.487-1.884 2.097-3.016l.634.341c-1.047 1.946-2.372 3.519-3.85 4.788-.432.7-.891 1.342-1.35 1.922-1.645 2.08-3.285 3.365-3.675 3.658l-.117.297-.25-.147c-.365.06-1.429.214-2.874.214-1.562-.001-3.571-.179-5.626-.854-.876.061-1.671.083-2.357.083-1.598 0-2.6-.117-2.61-.119l.084-.715s.055.007.17.018c.114.01.283.024.502.039.438.028 1.073.057 1.854.057.23 0 .472-.002.725-.008l-.06-.028c-2.419-1.144-4.744-3.122-6.262-6.401-2.283-.039-3.726-.294-3.74-.296l.126-.71.07.013c.048.007.12.019.216.031.192.028.475.064.838.1.553.055 1.292.11 2.175.134l-.031-.078c-.894-2.244-1.264-4.367-1.264-6.336 0-.277.008-.552.022-.823-2.101-.04-3.431-.26-3.444-.262l.117-.71s.093.015.278.039c.184.024.457.057.806.09.575.053 1.358.107 2.297.124.281-2.85 1.31-5.324 2.532-7.34-.262-.055-.487-.124-.682-.203-.474-.192-.776-.46-.93-.755-.105-.194-.14-.389-.138-.551.001-.284.095-.47.11-.501l.638.323.003.002.002-.002-.013.036-.02.142c0 .065.011.135.053.214.042.078.117.172.271.274.205.136.557.276 1.12.366.318-.483.644-.935.97-1.357 1.754-2.274 3.503-3.658 3.904-3.963l.12-.297.265.158c.128-.007.357-.017.669-.017h.127c.929.008 2.484.105 4.3.56-.135-.11-.326-.225-.582-.334l.285-.661zM19.625 35l-.116.034c-1.321.364-2.615.609-3.822.771 1.31.26 2.55.343 3.586.343.758 0 1.408-.044 1.897-.093-.541-.343-1.055-.695-1.545-1.054zm2.916-1.016l-.127.053c-.354.148-.709.286-1.064.414-.284.102-.568.198-.852.289.374.263.762.521 1.165.776l.363.225.012-.035.039-.115.041-.127c.118-.364.267-.865.423-1.48zm-9.206-5.788l-.302.065c-2.556.53-4.908.682-6.781.682h.241c1.446 2.94 3.554 4.693 5.77 5.747.49.232.983.43 1.476.596 1.54-.117 3.321-.36 5.163-.835-2.46-1.934-4.265-4.064-5.567-6.255zm12.363 4.11l-.157.102c-.706.452-1.432.85-2.167 1.2-.148.634-.296 1.176-.426 1.61l.04-.035.141-.126c.68-.611 1.589-1.51 2.496-2.658l.073-.093zm-2.465-8.375l-.124.089c-1.602 1.118-3.26 1.991-4.909 2.67-1.394.574-2.782 1.009-4.126 1.336 1.321 2.169 3.161 4.275 5.695 6.184.445-.13.891-.275 1.337-.436.55-.199 1.1-.42 1.643-.669.35-1.592.67-3.705.67-6.087 0-.989-.055-2.023-.186-3.087zm5.355-5.162l-.163.21c-1.397 1.782-2.93 3.254-4.53 4.468.173 1.235.244 2.434.244 3.571 0 2.181-.261 4.137-.572 5.692 1.192-.61 2.347-1.353 3.417-2.259 1.258-2.066 2.254-4.63 2.254-7.564 0-1.3-.195-2.674-.65-4.118zm-18.002 1.72l-.133.023c-2.118.36-4.071.47-5.666.47h.038c-.014.269-.022.54-.022.816 0 1.878.352 3.907 1.213 6.07.048.12.097.238.146.355h.09c1.852 0 4.184-.153 6.71-.683-.132-.24-.257-.48-.377-.721-1.054-2.122-1.673-4.27-1.999-6.33zm10.309-4.085l-.07.048c-1.713 1.185-3.517 2.071-5.31 2.728-1.43.525-2.854.905-4.22 1.177.314 2.002.914 4.087 1.935 6.141.146.294.3.586.464.878 1.377-.324 2.803-.764 4.232-1.352 1.75-.722 3.508-1.665 5.193-2.896-.315-1.99-.908-4.062-1.908-6.105-.101-.207-.206-.413-.316-.619zm4.171-3.812l-.2.235c-1.053 1.22-2.192 2.263-3.383 3.152.131.242.256.484.375.727.972 1.987 1.571 3.995 1.91 5.931 1.612-1.265 3.147-2.807 4.534-4.686-.05-.135-.103-.27-.159-.407-.835-2.036-1.898-3.658-3.077-4.952zm-14.519.157l-.092.022c-.818.193-1.575.304-2.196.306l-.178-.003c-.22-.008-.425-.022-.616-.04-1.239 1.974-2.293 4.414-2.583 7.227 1.583-.003 3.517-.119 5.603-.485-.142-1.108-.201-2.186-.201-3.214 0-1.372.106-2.658.263-3.813zm5.643-2.28l-.226.135c-.467.272-.977.532-1.51.776-1.018.465-2.113.87-3.152 1.17-.176 1.202-.298 2.558-.298 4.012 0 .988.056 2.02.19 3.08 1.322-.263 2.696-.632 4.074-1.137 1.787-.657 3.58-1.543 5.275-2.733-1.06-1.834-2.478-3.628-4.353-5.302zm2.196-2.111l-.007.024c-.065.167-.157.328-.267.483-.223.31-.526.607-.89.896-.128.102-.264.203-.406.303 1.837 1.667 3.246 3.454 4.313 5.281 1.215-.916 2.373-1.999 3.436-3.275-1.398-1.392-2.931-2.36-4.43-3.039-.592-.268-1.179-.49-1.749-.673zm-6.861-.105l-.098.088-.132.12c-.723.66-1.687 1.634-2.65 2.883-.245.316-.49.65-.73 1.002l.194.008.15.003c.565.002 1.316-.113 2.144-.314l.26-.065c.257-1.575.597-2.86.862-3.725zm.936-.549l-.015.045-.084.247c-.15.454-.351 1.116-.553 1.945-.13.54-.262 1.15-.38 1.819l.26-.08.264-.087c1.284-.43 2.606-1.004 3.663-1.619-.842-.707-1.77-1.39-2.792-2.042l-.363-.228zm1.038-.192l.077.05c.976.643 1.868 1.316 2.682 2.011.575-.387 1.023-.781 1.268-1.127.076-.105.132-.204.17-.294-1.707-.471-3.213-.61-4.197-.64z" transform="translate(-109 -8) translate(109 8)"/>
                    <path fill="#0070EE" d="M31.56 21.901h-.72c0 4.061-1.644 7.732-4.305 10.395-2.663 2.66-6.333 4.304-10.395 4.305-4.062 0-7.733-1.644-10.394-4.305C3.084 29.633 1.44 25.962 1.44 21.9c0-4.062 1.644-7.733 4.306-10.395C8.407 8.844 12.078 7.201 16.14 7.2c4.062 0 7.732 1.644 10.395 4.306 2.661 2.662 4.305 6.333 4.305 10.395h1.44c0-8.914-7.225-16.14-16.14-16.141C7.226 5.76 0 12.987 0 21.901c0 8.914 7.226 16.14 16.14 16.14 8.915 0 16.14-7.226 16.14-16.14h-.72" transform="translate(-109 -8) translate(109 8)"/>
                    <path fill="#E02020" d="M29.898.829c0 .458-.372.83-.83.83-.457 0-.828-.372-.828-.83 0-.457.371-.829.829-.829.457 0 .829.372.829.829M2.015 30.851s-2.172 4.472 0 6.67c2.173 2.198 12.565-2.098 20.121-13.285 8.05-11.918 6.872-21.501 6.872-21.501s.245 12.826-10.048 23.23C8.667 36.37 1.686 36.114 2.015 30.851" transform="translate(-109 -8) translate(109 8)"/>
                </g>
                <g>
                    <path fill="#FFF" d="M7.906 12.96v-2.033H2.53V.675H0V12.96h7.906zm3.864 0V3.83H9.323v9.13h2.447zm6.59 0l3.08-9.13h-2.548l-1.696 6.152L15.5 3.83h-2.548l3.08 9.129h2.328zm8.243.169c.76 0 1.452-.145 2.076-.435.624-.29 1.12-.693 1.485-1.21l-1.198-1.342c-.529.68-1.263 1.02-2.202 1.02-.608 0-1.11-.18-1.506-.54-.397-.36-.635-.837-.713-1.434h5.813v-.995c0-1.446-.358-2.562-1.076-3.35-.717-.787-1.7-1.181-2.949-1.181-.832 0-1.573.195-2.223.586-.65.391-1.152.948-1.506 1.67-.354.724-.532 1.544-.532 2.46v.237c0 1.367.421 2.46 1.262 3.282.84.821 1.93 1.232 3.27 1.232zm1.359-5.603H24.57c.084-.607.277-1.074.578-1.4.3-.327.693-.49 1.177-.49.517 0 .917.148 1.198.443.281.296.428.713.439 1.253v.194zm6.471 5.434V4.877l4.928 8.083h2.531V.675H39.37v8.1l-4.936-8.1h-2.53V12.96h2.53zm13.711.169c.76 0 1.452-.145 2.076-.435.624-.29 1.12-.693 1.485-1.21l-1.198-1.342c-.529.68-1.263 1.02-2.202 1.02-.608 0-1.11-.18-1.506-.54-.397-.36-.635-.837-.713-1.434h5.813v-.995c0-1.446-.359-2.562-1.076-3.35-.717-.787-1.7-1.181-2.949-1.181-.832 0-1.573.195-2.223.586-.65.391-1.152.948-1.506 1.67-.354.724-.532 1.544-.532 2.46v.237c0 1.367.42 2.46 1.262 3.282.84.821 1.93 1.232 3.27 1.232zm1.359-5.603H46.11c.084-.607.277-1.074.578-1.4.3-.327.693-.49 1.177-.49.517 0 .917.148 1.198.443.281.296.428.713.439 1.253v.194zm7.442 5.434l1.73-5.746 1.73 5.746h2.04l2.33-9.13H62.42l-1.199 5.814-1.662-5.813h-1.763l-1.67 5.805-1.19-5.805h-2.355l2.33 9.129h2.033zm12.512.169c1.131 0 2.054-.258 2.768-.772.714-.515 1.072-1.189 1.072-2.021 0-1.164-.645-1.983-1.933-2.455-.416-.152-.928-.289-1.535-.41-.608-.12-1.04-.264-1.295-.43-.256-.166-.384-.384-.384-.654 0-.287.112-.523.337-.709.225-.185.543-.278.954-.278.478 0 .83.114 1.054.342.225.228.338.516.338.865h2.438c0-.872-.347-1.581-1.042-2.127-.694-.545-1.621-.818-2.78-.818-1.086 0-1.964.271-2.637.814-.672.543-1.008 1.22-1.008 2.03 0 1.389 1.086 2.311 3.257 2.767.652.135 1.126.288 1.422.46.295.171.443.406.443.704 0 .287-.12.52-.359.696-.239.177-.592.266-1.059.266-.5 0-.9-.115-1.198-.346-.298-.23-.458-.562-.48-.996h-2.313c0 .552.169 1.065.506 1.54.338.476.803.85 1.397 1.123.593.272 1.272.409 2.037.409z" transform="translate(-109 -8) translate(109 8) translate(37.097 15.12)"/>
                    <path fill="#A6B6C5" d="M83.16 12.96v-1.325h-6.185V7.282H82.3V5.957h-5.324V2.008h6.1V.675h-7.72V12.96h7.805zm5.147 0l3.274-9.13h-1.595l-2.261 7.012-2.32-7.011H83.81l3.307 9.129h1.19zm8.454.169c1.53 0 2.678-.588 3.443-1.764l-.954-.742c-.287.371-.621.67-1.004.894-.382.225-.85.338-1.4.338-.777 0-1.416-.277-1.92-.831-.503-.554-.766-1.282-.789-2.182h6.185v-.65c0-1.456-.33-2.575-.987-3.357-.658-.782-1.58-1.173-2.768-1.173-.725 0-1.399.201-2.02.603-.622.402-1.106.96-1.452 1.67-.346.712-.519 1.52-.519 2.427v.286c0 1.362.388 2.449 1.165 3.262.776.812 1.783 1.219 3.02 1.219zm2-5.569h-4.573c.101-.827.365-1.47.793-1.928.427-.458.956-.688 1.586-.688.653 0 1.17.218 1.553.654.382.436.596 1.05.64 1.844v.118zm4.927 5.4V6.48c.366-.872 1.06-1.308 2.084-1.308.276 0 .532.02.768.06V3.78c-.157-.079-.388-.118-.692-.118-.939 0-1.665.408-2.176 1.223l-.026-1.054h-1.519v9.129h1.561zm4.844 3.687c1.237 0 2.14-.76 2.708-2.278l3.67-10.538h-1.67l-2.127 6.842-2.278-6.842h-1.704l3.257 9.028-.346.928c-.191.568-.435.959-.73 1.173-.295.213-.707.32-1.236.32l-.422-.033v1.265l.582.11.296.025zm10.867-3.518c1.114 0 1.983-.383 2.607-1.148l.076.979h1.435V0h-1.561v4.759c-.625-.732-1.471-1.097-2.54-1.097-1.074 0-1.944.426-2.607 1.278-.664.852-.996 1.979-.996 3.38v.117c0 1.395.333 2.526 1 3.392.667.867 1.529 1.3 2.586 1.3zm.388-1.325c-.754 0-1.344-.292-1.772-.877-.427-.585-.64-1.395-.64-2.43 0-1.16.213-2.034.64-2.625.428-.59 1.024-.885 1.79-.885.967 0 1.684.43 2.15 1.29v4.194c-.455.889-1.178 1.333-2.168 1.333zm8.97 1.325c1.006 0 1.872-.377 2.598-1.13.056.46.13.781.22.961h1.636v-.135c-.214-.495-.32-1.162-.32-2V6.623c-.023-.922-.332-1.646-.929-2.172-.596-.526-1.42-.79-2.472-.79-.663 0-1.272.125-1.826.372-.554.248-.993.584-1.317 1.008-.323.425-.485.865-.485 1.32h1.57c0-.399.188-.739.565-1.02.377-.281.844-.422 1.4-.422.636 0 1.117.162 1.443.485.327.324.49.758.49 1.304v.717h-1.52c-1.31 0-2.326.263-3.05.789-.722.526-1.083 1.264-1.083 2.215 0 .782.288 1.427.864 1.936.577.51 1.315.764 2.215.764zm.227-1.359c-.512 0-.93-.138-1.257-.413-.326-.276-.49-.658-.49-1.148 0-1.119.957-1.679 2.87-1.679h1.223v1.873c-.197.405-.515.734-.954.988-.439.253-.903.38-1.392.38zm6.632 4.877c1.237 0 2.14-.76 2.708-2.278l3.67-10.538h-1.67l-2.126 6.842-2.278-6.842h-1.705l3.257 9.028-.346.928c-.191.568-.434.959-.73 1.173-.295.213-.707.32-1.236.32l-.422-.033v1.265l.583.11.295.025z" transform="translate(-109 -8) translate(109 8) translate(37.097 15.12)"/>
                </g>
                <path fill="#E02020" d="M47.644 17.854c.41 0 .74-.118.991-.355.25-.236.376-.54.376-.91 0-.367-.124-.667-.372-.904-.247-.236-.579-.354-.995-.354-.422 0-.755.118-1 .354-.245.237-.367.537-.367.903 0 .371.125.675.375.911.25.237.581.355.992.355z" transform="translate(-109 -8) translate(109 8)"/>
            </g>
        </g>
    </g>
</svg>
